<svg width="942" height="942" viewBox="0 0 942 942" fill="none" xmlns="http://www.w3.org/2000/svg">
<path d="M813.7 477.406C813.7 477.406 813.7 476.558 814.171 476.181C814.195 475.71 814.195 475.239 814.171 474.768C814.171 474.768 814.171 473.92 814.171 473.543C814.171 473.167 814.171 472.601 814.171 472.13C814.171 471.659 814.171 471.283 814.171 470.812C814.171 470.341 814.171 469.964 814.171 469.493C814.192 469.053 814.192 468.613 814.171 468.174C814.171 468.174 814.171 467.326 813.7 466.855L813.134 465.631L812.287 464.312L811.721 463.464C782.336 427.756 749.278 395.235 713.094 366.438C633.212 302.288 551.164 268.47 475.71 268.47C275.158 268.47 135.742 455.74 129.902 463.652V464.312L129.148 465.536L128.583 466.761V467.986C128.559 468.456 128.559 468.928 128.583 469.399C128.583 469.399 128.583 470.246 128.583 470.717C128.583 471.188 128.583 471.659 128.583 472.13C128.583 472.601 128.583 473.072 128.583 473.449C128.583 473.826 128.583 474.297 128.583 474.768C128.562 475.207 128.562 475.647 128.583 476.087V477.406L129.148 478.63L129.902 479.949V480.514C135.742 488.427 275.158 673.624 475.71 673.624C551.07 673.624 633.212 640.183 713.188 576.881C749.366 548.286 782.425 515.954 811.816 480.42L812.381 479.478L813.229 478.253L813.7 477.406ZM475.71 645.27C312.932 645.27 188.4 507.644 159.292 471.942C188.4 435.958 312.65 296.73 475.71 296.73C621.72 296.73 750.774 435.392 781.86 472.036C750.774 508.68 621.72 645.27 475.71 645.27Z" fill="#5E5D61"/>
<path d="M471 324.99C442.122 324.99 413.892 333.553 389.881 349.597C365.87 365.641 347.155 388.445 336.104 415.124C325.053 441.804 322.162 471.162 327.796 499.485C333.429 527.808 347.335 553.825 367.755 574.245C388.175 594.665 414.192 608.571 442.515 614.204C470.838 619.838 500.196 616.947 526.876 605.896C553.555 594.844 576.359 576.13 592.403 552.119C608.447 528.108 617.01 499.878 617.01 471C616.96 432.291 601.561 395.182 574.19 367.81C546.818 340.439 509.709 325.04 471 324.99V324.99ZM471 588.75C447.711 588.75 424.945 581.844 405.582 568.906C386.218 555.967 371.125 537.577 362.213 516.061C353.301 494.545 350.969 470.869 355.513 448.028C360.056 425.187 371.271 404.206 387.738 387.738C404.206 371.271 425.187 360.056 448.028 355.513C470.869 350.969 494.545 353.301 516.061 362.213C537.577 371.125 555.967 386.218 568.906 405.582C581.844 424.945 588.75 447.711 588.75 471C588.7 502.214 576.278 532.135 554.207 554.207C532.135 576.278 502.214 588.7 471 588.75V588.75Z" fill="#5E5D61"/>
<path d="M150.72 296.73C154.467 296.73 158.061 295.241 160.711 292.591C163.361 289.942 164.85 286.348 164.85 282.6V164.85H282.6C286.347 164.85 289.941 163.361 292.591 160.711C295.241 158.062 296.73 154.468 296.73 150.72C296.73 146.972 295.241 143.378 292.591 140.729C289.941 138.079 286.347 136.59 282.6 136.59H150.72C146.972 136.59 143.378 138.079 140.729 140.729C138.079 143.378 136.59 146.972 136.59 150.72V282.6C136.59 286.348 138.079 289.942 140.729 292.591C143.378 295.241 146.972 296.73 150.72 296.73Z" fill="#5E5D61"/>
<path d="M659.4 164.85H777.15V282.6C777.15 286.348 778.639 289.942 781.289 292.591C783.938 295.241 787.533 296.73 791.28 296.73C795.028 296.73 798.622 295.241 801.271 292.591C803.921 289.942 805.41 286.348 805.41 282.6V150.72C805.41 146.972 803.921 143.378 801.271 140.729C798.622 138.079 795.028 136.59 791.28 136.59H659.4C655.653 136.59 652.058 138.079 649.409 140.729C646.759 143.378 645.27 146.972 645.27 150.72C645.27 154.468 646.759 158.062 649.409 160.711C652.058 163.361 655.653 164.85 659.4 164.85Z" fill="#5E5D61"/>
<path d="M791.28 645.27C787.533 645.27 783.938 646.759 781.289 649.409C778.639 652.058 777.15 655.653 777.15 659.4V777.15H659.4C655.653 777.15 652.058 778.639 649.409 781.289C646.759 783.938 645.27 787.533 645.27 791.28C645.27 795.028 646.759 798.622 649.409 801.271C652.058 803.921 655.653 805.41 659.4 805.41H791.28C795.028 805.41 798.622 803.921 801.271 801.271C803.921 798.622 805.41 795.028 805.41 791.28V659.4C805.41 655.653 803.921 652.058 801.271 649.409C798.622 646.759 795.028 645.27 791.28 645.27Z" fill="#5E5D61"/>
<path d="M282.6 777.15H164.85V659.4C164.85 655.653 163.361 652.058 160.711 649.409C158.061 646.759 154.467 645.27 150.72 645.27C146.972 645.27 143.378 646.759 140.729 649.409C138.079 652.058 136.59 655.653 136.59 659.4V791.28C136.59 795.028 138.079 798.622 140.729 801.271C143.378 803.921 146.972 805.41 150.72 805.41H282.6C286.347 805.41 289.941 803.921 292.591 801.271C295.241 798.622 296.73 795.028 296.73 791.28C296.73 787.533 295.241 783.938 292.591 781.289C289.941 778.639 286.347 777.15 282.6 777.15Z" fill="#5E5D61"/>
<path d="M471 400.35C457.027 400.35 443.367 404.494 431.749 412.257C420.131 420.02 411.075 431.054 405.728 443.963C400.381 456.873 398.981 471.078 401.708 484.783C404.434 498.488 411.162 511.077 421.043 520.957C430.923 530.838 443.512 537.566 457.217 540.292C470.922 543.019 485.127 541.619 498.037 536.272C510.946 530.925 521.98 521.869 529.743 510.251C537.506 498.633 541.65 484.973 541.65 471C541.625 452.27 534.174 434.315 520.93 421.07C507.686 407.826 489.73 400.375 471 400.35V400.35ZM471 513.39C462.616 513.39 454.42 510.904 447.449 506.246C440.478 501.588 435.045 494.968 431.837 487.222C428.628 479.476 427.789 470.953 429.425 462.73C431.06 454.507 435.097 446.954 441.026 441.026C446.954 435.097 454.507 431.06 462.73 429.425C470.953 427.789 479.476 428.628 487.222 431.837C494.968 435.045 501.588 440.478 506.246 447.449C510.904 454.42 513.39 462.616 513.39 471C513.39 482.243 508.924 493.025 500.974 500.974C493.025 508.924 482.243 513.39 471 513.39Z" fill="#5E5D61"/>
</svg>
