<svg width="1056" height="1056" viewBox="0 0 1056 1056" fill="none" xmlns="http://www.w3.org/2000/svg">
<path d="M852.669 208.439C766.572 123.013 652.505 76.0284 531.283 76.0284C530.673 76.0284 530.062 76.0284 529.452 76.0284C277.801 77.0175 73.8802 282.541 74.8483 534.198C75.3218 656.107 123.242 770.523 209.771 856.38C295.879 941.815 409.935 988.8 531.157 988.79C531.767 988.79 532.388 988.79 532.998 988.79C784.639 987.811 988.57 782.287 987.592 530.631C987.129 408.733 939.208 294.306 852.669 208.439ZM532.883 957.221C419.7 957.642 312.568 913.909 232.016 833.976C151.464 754.044 106.858 647.541 106.417 534.072C105.512 299.831 295.331 108.513 529.568 107.597C530.147 107.597 530.694 107.597 531.273 107.597C644.108 107.597 750.293 151.331 830.434 230.853C910.986 310.775 955.592 417.277 956.034 530.757C956.939 764.998 767.108 956.306 532.883 957.221Z" fill="#5E5D61"/>
<path d="M697.858 413.9C701.741 407.07 700.015 398.431 693.807 393.611C687.598 388.792 678.812 389.276 673.151 394.737L539.638 524.054C537.27 523.843 534.756 523.843 532.567 523.738C490.602 523.907 456.593 558.18 456.74 600.145C456.814 620.476 464.811 639.554 479.248 653.876C493.601 668.124 512.616 675.953 532.809 675.953C532.914 675.953 533.03 675.953 533.146 675.953C553.476 675.879 572.564 667.882 586.885 653.455C601.196 639.017 609.036 619.876 608.962 599.556C608.93 591.717 607.678 583.993 605.226 576.479L697.858 413.9ZM573.406 581.625C576.026 587.476 577.373 593.548 577.394 599.672C577.446 611.573 572.848 622.77 564.472 631.22C556.085 639.67 544.931 644.342 533.019 644.384C521.118 644.152 509.922 639.849 501.472 631.462C493.022 623.085 488.35 611.921 488.308 600.019C488.213 575.469 508.122 555.412 532.661 555.307C532.693 555.307 532.735 555.307 532.767 555.307C535.766 555.307 538.828 555.623 541.869 556.254C546.962 557.285 552.265 555.76 556.033 552.119L615.665 494.369L574.079 567.356C571.596 571.723 571.343 577.026 573.406 581.625Z" fill="#5E5D61"/>
<path d="M534.04 785.034C533.977 785.034 533.914 785.034 533.84 785.034C506.449 785.139 484.257 807.511 484.352 834.902C484.404 848.172 489.613 860.631 499.041 869.975C508.417 879.278 520.834 884.381 534.03 884.381C534.093 884.381 534.156 884.381 534.229 884.381C561.62 884.276 583.813 861.904 583.718 834.513C583.623 807.185 561.357 785.034 534.04 785.034ZM534.114 852.812C534.093 852.812 534.072 852.812 534.04 852.812C529.221 852.812 524.696 850.95 521.286 847.561C517.856 844.162 515.951 839.616 515.93 834.776C515.899 824.79 523.98 816.634 533.966 816.592C533.987 816.592 534.008 816.592 534.04 816.592C543.995 816.592 552.108 824.674 552.15 834.629C552.202 844.625 544.1 852.77 534.114 852.812Z" fill="#5E5D61"/>
<path d="M531.399 188.887C530.957 188.887 530.494 188.887 530.062 188.887C438.83 189.234 353.196 225.097 288.934 289.855C224.682 354.613 189.483 440.523 189.83 531.757C190.199 623.064 226.102 708.742 290.944 773.027C293.911 775.953 297.899 777.605 302.056 777.605C302.234 777.605 302.403 777.605 302.582 777.594C306.928 777.447 311.021 775.521 313.894 772.259L385.406 691.222C391.173 684.687 390.552 674.722 384.017 668.945C377.483 663.199 367.507 663.82 361.741 670.344L301.593 738.512C250.073 681.73 221.714 608.911 221.409 531.651C221.094 448.846 253.03 370.882 311.358 312.111C369.685 253.34 447.396 220.793 530.199 220.477C530.61 220.477 531.01 220.477 531.409 220.477C701.773 220.477 840.726 358.749 841.378 529.273C841.673 606.796 813.703 680.078 762.268 737.344L701.52 677.058C695.322 670.902 685.336 670.944 679.201 677.142C673.056 683.329 673.098 693.326 679.286 699.461L751.514 771.144C754.471 774.079 758.469 775.732 762.636 775.732C762.657 775.732 762.678 775.732 762.699 775.732C766.877 775.711 770.886 774.037 773.843 771.07C838.105 706.312 873.304 620.402 872.957 529.158C872.199 341.228 719.125 188.887 531.399 188.887Z" fill="#5E5D61"/>
</svg>
