<svg width="1337" height="1014" viewBox="0 0 1337 1014" fill="none" xmlns="http://www.w3.org/2000/svg">
<path d="M793.114 147.499L573.116 400.584C567.373 407.193 566.015 416.547 569.641 424.513C573.266 432.494 581.202 437.611 589.959 437.641L712.392 437.969L521.216 626.236C512.415 634.918 512.31 649.075 520.978 657.892C525.349 662.338 531.137 664.56 536.925 664.56C542.594 664.56 548.263 662.412 552.634 658.131L782.582 431.689C789.041 425.319 791.025 415.681 787.594 407.283C784.178 398.884 776.018 393.379 766.933 393.364L639.025 393.021L826.918 176.857C835.019 167.534 834.034 153.391 824.71 145.291C815.387 137.175 801.229 138.175 793.114 147.499Z" fill="#5E5D61"/>
<path d="M1250.1 0.271622H534.434C486.502 0.271622 447.506 38.5963 447.506 85.6927V291.369L87.7109 291.787C39.779 291.787 0.783051 330.111 0.783051 377.208V752.473C0.783051 799.524 39.779 837.819 87.7109 837.819H164.226V991.163C164.226 999.964 169.388 1007.95 177.414 1011.57C180.352 1012.9 183.485 1013.54 186.588 1013.54C191.959 1013.54 197.255 1011.62 201.432 1007.92L393.547 837.819H787.922C835.839 837.819 874.835 799.539 874.835 752.473V546.29H944.249L1136.36 716.386C1142.94 722.219 1152.37 723.666 1160.38 720.041C1168.41 716.431 1173.57 708.449 1173.57 699.633V546.29H1250.07C1298 546.29 1337 508.01 1337 460.958V85.6927C1337.01 38.5963 1298.03 0.271622 1250.1 0.271622ZM1292.26 460.958C1292.26 483.335 1273.34 501.535 1250.09 501.535H1151.21C1138.84 501.535 1128.83 511.545 1128.83 523.912V649.941L967.566 507.159C963.479 503.534 958.198 501.535 952.738 501.535H852.458C840.091 501.535 830.081 511.545 830.081 523.912V752.473C830.081 774.85 811.165 793.065 787.922 793.065H385.059C379.599 793.065 374.318 795.064 370.23 798.689L208.965 941.455V815.442C208.965 803.075 198.955 793.065 186.588 793.065H87.696C64.4386 793.065 45.5225 774.85 45.5225 752.473V377.223C45.5225 354.801 64.4386 336.556 87.7258 336.556L459.097 336.123H469.883C482.25 336.123 492.26 326.113 492.26 313.746V85.7077C492.26 63.2858 511.176 45.0409 534.434 45.0409H1250.1C1273.36 45.0409 1292.27 63.2858 1292.27 85.7077L1292.26 460.958Z" fill="#5E5D61"/>
</svg>
